<svg xmlns="http://www.w3.org/2000/svg" id="Capa_1" enable-background="new 0 0 512 512" height="512" viewBox="0 0 512 512" width="512"><g><g><g><g><g><g><g><g><g>
  <circle cx="237.939" cy="240.168" fill="#fbe77b" r="230.439"/>
  <circle cx="237.939" cy="240.168" fill="#f4f8f8" r="187.059"/>
  <path d="m237.939 53.109c-10.537 0-20.865.885-30.927     2.56 88.591 14.741 156.133 91.726 156.133 184.5s-67.542     169.758-156.133 184.5c10.062 1.674 20.39 2.56 30.927      2.56 103.31 0 187.059-83.749 187.059-187.059s-83.749-187.061-187.059-187.061z" fill="#e7ecf1"/></g></g></g></g></g></g><circle cx="237.939" cy="240.168" fill="#fc8086" r="23.145"/>
     </g></g><g><g><g><path d="m452.287 248.428c-2.455-3.406-7.207-4.173-10.607-1.719l-9.621 6.938c.307-4.483.471-8.981.471-13.472 0-107.293-87.29-194.583-194.583-194.583-107.294 0-194.584 87.29-194.584 194.583s87.29          194.583 194.584 194.583c13.586 0 27.154-1.408 40.331-4.187 4.107-.866          6.734-4.897 5.868-9.003-.867-4.107-4.898-6.733-9.003-5.868-9.692 2.044-19.617           3.269-29.598 3.687v-12.526c0-4.197-3.402-7.599-7.599-7.599s-7.599 3.402-7.599           7.599v12.527c-43.74-1.832-83.479-19.396-113.695-47.174l8.801-8.802c2.967-2.968           2.967-7.779-.001-10.747-2.966-2.967-7.778-2.967-10.746           0l-8.801 8.801c-27.779-30.216-45.342-69.954-47.174-113.694h12.529c4.197           0 7.599-3.402 7.599-7.599s-3.402-7.599-7.599-7.599h-12.528c1.832-43.74           19.396-83.479 47.174-113.694l8.801 8.801c2.968 2.967 7.778 2.968 10.746           0s2.968-7.779.001-10.747l-8.801-8.802c30.216-27.779 69.955-45.342           113.695-47.174v12.527c0 4.197 3.402 7.599 7.599 7.599s7.599-3.402           7.599-7.599v-12.524c43.74 1.832 83.479 19.396 113.694           47.174l-8.802 8.802c-2.967 2.967-2.967 7.779 0 10.746           2.969 2.968 7.779 2.967 10.747 0l8.801-8.801c29.38           31.957 47.346 74.564 47.346 121.293 0 3.814-.126           7.632-.366 11.44l-7.509-8.584c-2.764-3.16-7.565-3.479-10.722-.716-3.159 2.763-3.48 7.564-.717 10.722l18.264 20.88c2.356 3.554 7.347 4.547 10.891 1.991l23.396-16.871c3.403-2.456 4.173-7.206 1.718-10.609z"/><path d="m324.404 232.576h-56.675c-2.77-10.852-11.331-19.413-22.183-22.183v-88.083c0-4.197-3.402-7.599-7.599-7.599s-7.599 3.402-7.599 7.599v88.083c-13.284 3.391-23.135 15.457-23.135 29.782 0 16.947 13.787 30.734 30.734 30.734 14.325 0 26.391-9.852 29.782-23.135h56.675c4.197 0 7.599-3.402 7.599-7.599-.001-4.197-3.402-7.599-7.599-7.599zm-86.457 23.135c-8.567 0-15.537-6.97-15.537-15.537s6.969-15.537 15.537-15.537c8.567 0 15.537 6.97 15.537 15.537-.001 8.567-6.97 15.537-15.537 15.537z"/>
       
</g></g></g></g></svg>